<?xml version="1.0" encoding="utf-8" ?>
<svg xmlns="http://www.w3.org/2000/svg" xmlns:xlink="http://www.w3.org/1999/xlink" width="779" height="602">
	<path fill="#20F923" transform="scale(4.01291 4.01291)" d="M85.3085 30.0888C95.867 29.2576 107.906 31.3791 117.894 34.6734C125.324 37.1243 133.454 40.95 139.86 45.4921C142.77 47.5549 145.361 49.8802 148.081 52.1692C149.417 53.2936 151.436 54.2355 152.241 55.8323C151.42 57.9303 147.931 60.8611 146.142 62.235C145.728 62.5527 144.669 63.3624 144.145 63.2586C142.674 62.968 138.199 57.8961 136.674 56.662C135.16 55.4369 133.406 54.3629 131.76 53.31C120.492 46.0986 108.672 42.7022 95.5439 41.0386C80.6679 40.6992 67.9849 42.8472 54.6022 49.7133C52.3365 50.8757 49.965 52.0011 47.8571 53.4277C43.9993 56.0388 40.7426 59.0945 37.2396 62.1176C36.8718 62.435 35.9627 63.2733 35.5015 63.2467C33.7727 63.1469 28.7189 57.3011 27.4976 55.8172C41.2879 43.3163 55.4143 35.0789 73.8862 31.5228C77.6251 30.803 81.5293 30.6509 85.3085 30.0888Z"/>
	<path fill="#20F923" transform="scale(4.01291 4.01291)" d="M83.0346 51.08C92.7465 50.1966 103.628 51.361 112.778 54.658C120.552 57.4595 128.287 61.8662 134.264 67.5988C135.248 68.5422 136.505 69.6142 137.088 70.8571C136.745 72.5597 131.591 76.9889 130.07 78.4911C120.198 68.9736 110.558 64.6314 97.1282 62.0705C95.0421 61.6535 92.3123 61.9434 90.1464 61.9583C74.8578 62.0634 60.8483 67.5077 50.0548 78.4491C47.4011 76.1376 44.8644 73.5816 42.5254 70.9531C54.4458 58.2363 66.3091 54.0446 83.0346 51.08Z"/>
	<path fill="#20F923" transform="scale(4.01291 4.01291)" d="M89.005 71.073C91.2538 70.9628 93.694 71.5038 95.9222 71.8193C108.217 73.5602 113.892 77.5315 123.401 85.0792C120.975 87.8627 118.185 90.4482 115.583 93.0745C108.787 86.777 100.491 82.9446 91.1717 82.9857C89.8526 82.9818 88.5296 82.9736 87.2114 83.023C79.3035 83.3194 69.9006 87.3127 64.4873 93.1374C61.7745 90.4104 58.8588 87.7255 56.4589 84.7208C59.3956 83.3274 61.5258 80.7803 64.2444 79.0352C73.7009 72.9651 78.5055 73.0049 89.005 71.073Z"/>
	<path fill="#20F923" transform="scale(4.01291 4.01291)" d="M88.2078 93.2003Q88.5486 93.158 88.891 93.1325Q89.2334 93.1071 89.5767 93.0984Q89.9199 93.0898 90.2632 93.098Q90.6064 93.1063 90.9489 93.1314Q91.2914 93.1564 91.6322 93.1983Q91.973 93.2402 92.3113 93.2987Q92.6496 93.3573 92.9847 93.4324Q93.3197 93.5075 93.6507 93.599Q93.9817 93.6904 94.3077 93.798Q94.6338 93.9057 94.9542 94.0292Q95.2746 94.1526 95.5885 94.2917Q95.9025 94.4308 96.2092 94.5852Q96.5159 94.7395 96.8147 94.9087Q97.1135 95.0779 97.4036 95.2616Q97.6937 95.4453 97.9745 95.643Q98.2552 95.8407 98.5259 96.0519Q98.7966 96.2632 99.0566 96.4875Q99.3166 96.7117 99.5652 96.9485Q99.8139 97.1853 100.051 97.4341Q100.287 97.6828 100.512 97.9428Q100.736 98.2029 100.947 98.4736Q101.158 98.7443 101.356 99.0251Q101.553 99.3059 101.737 99.596Q101.921 99.8862 102.09 100.185Q102.259 100.484 102.413 100.791Q102.567 101.097 102.706 101.411Q102.845 101.725 102.969 102.046Q103.092 102.366 103.2 102.692Q103.307 103.018 103.399 103.349Q103.49 103.68 103.565 104.015Q103.64 104.35 103.699 104.689Q103.757 105.027 103.799 105.368Q103.841 105.709 103.866 106.051Q103.891 106.394 103.899 106.737Q103.907 107.08 103.898 107.423Q103.89 107.767 103.864 108.109Q103.839 108.452 103.796 108.792Q103.754 109.133 103.695 109.471Q103.636 109.81 103.56 110.144Q103.485 110.479 103.393 110.81Q103.301 111.141 103.193 111.467Q103.085 111.793 102.961 112.113Q102.837 112.433 102.697 112.747Q102.558 113.061 102.403 113.367Q102.248 113.674 102.079 113.972Q101.909 114.271 101.725 114.561Q101.541 114.851 101.343 115.131Q101.145 115.411 100.933 115.682Q100.721 115.952 100.497 116.212Q100.272 116.472 100.035 116.72Q99.7978 116.968 99.5488 117.205Q99.2998 117.441 99.0394 117.665Q98.7791 117.889 98.508 118.1Q98.237 118.31 97.956 118.508Q97.6749 118.705 97.3845 118.888Q97.0941 119.071 96.7951 119.24Q96.496 119.409 96.189 119.563Q95.8821 119.716 95.5679 119.855Q95.2538 119.994 94.9332 120.116Q94.6126 120.239 94.2864 120.347Q93.9601 120.454 93.629 120.545Q93.2979 120.636 92.9628 120.71Q92.6276 120.785 92.2892 120.843Q91.9508 120.901 91.6099 120.942Q91.2696 120.983 90.9277 121.008Q90.5859 121.032 90.2432 121.04Q89.9005 121.048 89.5579 121.039Q89.2152 121.03 88.8734 121.004Q88.5316 120.978 88.1915 120.935Q87.8514 120.893 87.5138 120.834Q87.1762 120.774 86.8419 120.699Q86.5076 120.623 86.1774 120.531Q85.8472 120.439 85.5219 120.331Q85.1967 120.223 84.8771 120.099Q84.5575 119.975 84.2443 119.836Q83.9312 119.696 83.6253 119.542Q83.3193 119.387 83.0214 119.218Q82.7234 119.048 82.4341 118.865Q82.1447 118.681 81.8648 118.483Q81.5848 118.285 81.3149 118.074Q81.045 117.863 80.7857 117.639Q80.5265 117.414 80.2785 117.178Q80.0306 116.941 79.7946 116.692Q79.5585 116.444 79.3349 116.184Q79.1114 115.924 78.9008 115.654Q78.6902 115.383 78.4932 115.103Q78.2961 114.822 78.1131 114.533Q77.93 114.243 77.7613 113.944Q77.5927 113.646 77.4389 113.34Q77.2851 113.033 77.1465 112.72Q77.0079 112.406 76.8848 112.087Q76.7617 111.767 76.6545 111.441Q76.5472 111.116 76.4561 110.785Q76.3649 110.455 76.2901 110.12Q76.2152 109.786 76.1569 109.448Q76.0985 109.11 76.0568 108.77Q76.0151 108.43 75.9901 108.088Q75.9651 107.746 75.9569 107.403Q75.9487 107.061 75.9573 106.718Q75.9659 106.375 75.9913 106.034Q76.0167 105.692 76.0588 105.352Q76.101 105.011 76.1597 104.674Q76.2184 104.336 76.2937 104.002Q76.3689 103.667 76.4604 103.337Q76.552 103.007 76.6596 102.681Q76.7672 102.356 76.8907 102.036Q77.0141 101.716 77.1531 101.403Q77.2921 101.09 77.4462 100.783Q77.6004 100.477 77.7694 100.179Q77.9384 99.8809 78.1218 99.5913Q78.3052 99.3017 78.5026 99.0215Q78.7 98.7412 78.9108 98.471Q79.1217 98.2008 79.3456 97.9413Q79.5695 97.6817 79.8058 97.4334Q80.0421 97.1852 80.2904 96.9488Q80.5386 96.7124 80.7981 96.4885Q81.0576 96.2646 81.3278 96.0536Q81.598 95.8427 81.8781 95.6453Q82.1583 95.4478 82.4479 95.2644Q82.7374 95.0809 83.0356 94.9118Q83.3338 94.7428 83.6399 94.5886Q83.946 94.4344 84.2593 94.2953Q84.5726 94.1563 84.8923 94.0328Q85.2121 93.9093 85.5375 93.8016Q85.8629 93.6939 86.1932 93.6023Q86.5235 93.5107 86.8579 93.4354Q87.1923 93.3601 87.53 93.3013Q87.8677 93.2425 88.2078 93.2003Z"/>
</svg>
